<?xml version="1.0" encoding="utf-8"?>
<!-- Generator: Adobe Illustrator 21.0.0, SVG Export Plug-In . SVG Version: 6.00 Build 0)  -->
<svg version="1.1" id="Calque_1" xmlns="http://www.w3.org/2000/svg" xmlns:xlink="http://www.w3.org/1999/xlink" x="0px" y="0px"
	 viewBox="0 0 1920 1080" style="enable-background:new 0 0 1920 1080;" xml:space="preserve">
<style type="text/css">
	.st0{fill:none;}
	.st1{fill:#FFFFFF;stroke:#FFFFFF;}
	.st2{font-family:'BebasKai';}
	.st3{font-size:72px;}
	.st4{fill:#FFFFFF;stroke:#FFFFFF;stroke-width:5;stroke-miterlimit:10;}
	.st5{fill:#FFFFFF;stroke:#FFFFFF;stroke-width:2;stroke-miterlimit:10;}
</style>
<rect x="623.8" y="496.8" class="st0" width="478.6" height="100"/>
<text transform="matrix(1 0 0 1 623.8095 547.1616)" class="st1 st2 st3">FREE</text>
<path class="st4" d="M822.7,491.5H752c0,0-7-0.8-7,7c0,6.9,0,13.9,0,20.8c0,6.7-0.4,13.5,0,20.1c0.1,2.2,1.1,4.6,1.6,6.7
	c0.6,2.2,1.1,4.3,1.7,6.5c0.7,2.7,1.4,5.4,2.1,8l4.7-17.8c0,0,0.8-3.5,4.7-3.5c3.8,0,51.7,0,51.7,0"/>
<line class="st5" x1="760.8" y1="503.1" x2="795.4" y2="503.1"/>
<line class="st5" x1="770.7" y1="511.6" x2="795.4" y2="511.6"/>
<line class="st5" x1="760.8" y1="519.3" x2="795.4" y2="519.3"/>
<line class="st5" x1="760.8" y1="526.5" x2="795.4" y2="526.5"/>
</svg>
